# xmcd
#
# Track frame offsets:
#	150
#	11490
#	22152
#	34810
#	45337
#	58210
#	70882
#	83397
#	96810
#	109397
#	120200
#	130395
#	143405
#	153537
#	164645
#	179100
#	193487
#	207177
#	216902
#	228647
#	241840
#	255142
#	268510
#	282830
#	294367
#	308402
#
# Disc length: 4285 seconds
# Revision: 2
# Processed by: cddbd v1.5.2PL0 Copyright (c) Steve Scherf et al.
# Submitted via: dBpowerAMP V12.0
#
DISCID=7310bb1a
DTITLE=Chuck Willis - Wails! The Complete OKeh, Epic and Columbia Recordings, 1951-1956, Disc 1 [Sundazed SC 11122]
DYEAR=2003
DGENRE=Blues
TTITLE0=Can't You See
TTITLE1=Be Good Or Be Gone
TTITLE2=It Ain't Right To Treat Me Wrong
TTITLE3=Let's Jump Tonight
TTITLE4=It's Too Late Baby
TTITLE5=I Rule My House
TTITLE6=My Baby's On My Mind
TTITLE7=I Tried (To Get Along With You)
TTITLE8=Here I Come
TTITLE9=Caldonia (What Makes Your Big Head So Hard?)
TTITLE10=Loud Mouth Lucy
TTITLE11=Salty Tears
TTITLE12=Take It Like A Man
TTITLE13=Wrong Lake To Catch A Fish
TTITLE14=My Story
TTITLE15=I've Been Treated Wrong Too Long
TTITLE16=Don't Decieve Me
TTITLE17=My Baby's Coming Home
TTITLE18=You Broke My Heart
TTITLE19=When My Day Is Over
TTITLE20=Going To The River
TTITLE21=Baby Have Left Me Again
TTITLE22=You're Still My Baby
TTITLE23=What's Your Name?
TTITLE24=Make Up Your Mind
TTITLE25=I Feel So Bad
EXTD=
EXTT0=
EXTT1=
EXTT2=
EXTT3=
EXTT4=
EXTT5=
EXTT6=
EXTT7=
EXTT8=
EXTT9=
EXTT10=
EXTT11=
EXTT12=
EXTT13=
EXTT14=
EXTT15=
EXTT16=
EXTT17=
EXTT18=
EXTT19=
EXTT20=
EXTT21=
EXTT22=
EXTT23=
EXTT24=
EXTT25=
PLAYORDER=
